<svg xmlns="http://www.w3.org/2000/svg" xmlns:xlink="http://www.w3.org/1999/xlink" width="359pt" height="216" viewBox="0 0 358.71 161.86"><g id="graph0" class="graph" transform="scale(1 1) rotate(0) translate(4 157.8639)"><title>nats_request_reply</title><polygon fill="#fff" stroke="transparent" points="-4 4 -4 -157.864 354.707 -157.864 354.707 4 -4 4"/><g id="node1" class="node"><title>publisher</title><path fill="none" stroke="#000" d="M56.8346,-49.231C56.8346,-49.231 12.0551,-49.231 12.0551,-49.231 6.0551,-49.231 .0551,-43.231 .0551,-37.231 .0551,-37.231 .0551,-25.231 .0551,-25.231 .0551,-19.231 6.0551,-13.231 12.0551,-13.231 12.0551,-13.231 56.8346,-13.231 56.8346,-13.231 62.8346,-13.231 68.8346,-19.231 68.8346,-25.231 68.8346,-25.231 68.8346,-37.231 68.8346,-37.231 68.8346,-43.231 62.8346,-49.231 56.8346,-49.231"/><text x="34.445" y="-27.031" fill="#000" font-family="Times,serif" font-size="14" text-anchor="middle">Publisher</text></g><g id="node2" class="node"><title>subject</title><ellipse cx="171.86" cy="-117.231" fill="none" stroke="#000" rx="36.766" ry="36.766"/><text x="171.86" y="-113.031" fill="#000" font-family="Times,serif" font-size="14" text-anchor="middle">Subject</text></g><g id="edge1" class="edge"><title>publisher-&gt;subject</title><path fill="none" stroke="#000" d="M63.2516,-49.2594C83.2612,-61.7822 110.1803,-78.6291 132.2123,-92.4176"/><polygon fill="#000" stroke="#000" points="130.367 -95.391 140.7 -97.73 134.08 -89.458 130.367 -95.391"/><text x="102.059" y="-84.031" fill="#000" font-family="Times,serif" font-size="14" text-anchor="middle">msg1</text></g><g id="node3" class="node"><title>reply</title><ellipse cx="171.86" cy="-31.231" fill="none" stroke="#000" rx="31.464" ry="31.464"/><text x="171.86" y="-27.031" fill="#000" font-family="Times,serif" font-size="14" text-anchor="middle">Reply</text></g><g id="node4" class="node"><title>sub1</title><path fill="none" stroke="#000" d="M338.6453,-91.231C338.6453,-91.231 286.8931,-91.231 286.8931,-91.231 280.8931,-91.231 274.8931,-85.231 274.8931,-79.231 274.8931,-79.231 274.8931,-67.231 274.8931,-67.231 274.8931,-61.231 280.8931,-55.231 286.8931,-55.231 286.8931,-55.231 338.6453,-55.231 338.6453,-55.231 344.6453,-55.231 350.6453,-61.231 350.6453,-67.231 350.6453,-67.231 350.6453,-79.231 350.6453,-79.231 350.6453,-85.231 344.6453,-91.231 338.6453,-91.231"/><text x="312.769" y="-69.031" fill="#000" font-family="Times,serif" font-size="14" text-anchor="middle">Subscriber</text></g><g id="edge3" class="edge"><title>subject-&gt;sub1</title><path fill="none" stroke="#000" d="M207.0542,-106.2414C224.547,-100.7791 245.9472,-94.0967 264.9064,-88.1765"/><polygon fill="#000" stroke="#000" points="266.063 -91.482 274.565 -85.161 263.976 -84.8 266.063 -91.482"/><text x="241.662" y="-101.031" fill="#000" font-family="Times,serif" font-size="14" text-anchor="middle">msg1</text></g><g id="edge5" class="edge"><title>reply-&gt;publisher</title><path fill="none" stroke="#000" d="M140.9468,-36.9759C122.7803,-38.0548 99.4966,-38.2651 79.3354,-37.6068"/><polygon fill="#000" stroke="#000" points="79.257 -34.101 69.121 -37.183 78.967 -41.095 79.257 -34.101"/></g><g id="edge4" class="edge"><title>sub1-&gt;reply</title><path fill="none" stroke="#000" d="M274.7888,-61.9103C255.2759,-56.0942 231.509,-49.0101 211.7317,-43.1152"/><polygon fill="#000" stroke="#000" points="212.672 -39.743 202.089 -40.241 210.673 -46.452 212.672 -39.743"/><text x="241.662" y="-59.031" fill="#000" font-family="Times,serif" font-size="14" text-anchor="middle">ack</text></g></g></svg>