<svg xmlns="http://www.w3.org/2000/svg" xmlns:xlink="http://www.w3.org/1999/xlink" width="350pt" height="221pt" viewBox="0 0 349.53 221"><g id="graph0" class="graph" transform="scale(1 1) rotate(0) translate(4 217)"><title>nats_streaming</title><polygon fill="#fff" stroke="transparent" points="-4 4 -4 -217 345.533 -217 345.533 4 -4 4"/><g id="clust1" class="cluster"><title>cluster_nats_streaming_server</title><polygon fill="none" stroke="#000" points="33.533 -44 33.533 -118 333.533 -118 333.533 -44 33.533 -44"/><text x="183.533" y="-50.8" fill="#000" font-family="Times,serif" font-size="14" text-anchor="middle">NATS Streaming Server</text></g><g id="node1" class="node"><title>application</title><polygon fill="none" stroke="#000" points="0 -146.5 0 -212.5 175.065 -212.5 175.065 -146.5 0 -146.5"/><text x="87.533" y="-197.3" fill="#000" font-family="Times,serif" font-size="14" text-anchor="middle">Application Code</text><polyline fill="none" stroke="#000" points="0 -190.5 175.065 -190.5"/><text x="87.533" y="-175.3" fill="#000" font-family="Times,serif" font-size="14" text-anchor="middle">NATS Streaming Client API</text><polyline fill="none" stroke="#000" points="0 -168.5 175.065 -168.5"/><text x="87.533" y="-153.3" fill="#000" font-family="Times,serif" font-size="14" text-anchor="middle">NATS Client API</text></g><g id="node2" class="node"><title>nats_server</title><polygon fill="none" stroke="#000" points="133.078 -110 41.988 -110 41.988 -74 133.078 -74 133.078 -110"/><text x="87.533" y="-87.8" fill="#000" font-family="Times,serif" font-size="14" text-anchor="middle">NATS Server</text></g><g id="edge2" class="edge"><title>application:nats-&gt;nats_server</title><path fill="none" stroke="#000" stroke-width="2" d="M87.5327,-136.3888C87.5327,-136.3888 87.5327,-120.1041 87.5327,-120.1041"/><polygon fill="#000" stroke="#000" stroke-width="2" points="91.033 -120.104 87.533 -110.104 84.033 -120.104 91.033 -120.104"/><polygon fill="#000" stroke="#000" stroke-width="2" points="84.033 -136.389 87.533 -146.389 91.033 -136.389 84.033 -136.389"/></g><g id="node3" class="node"><title>streaming_module</title><polygon fill="none" stroke="#000" points="325.63 -110 205.435 -110 205.435 -74 325.63 -74 325.63 -110"/><text x="265.533" y="-87.8" fill="#000" font-family="Times,serif" font-size="14" text-anchor="middle">Streaming Module</text></g><g id="edge1" class="edge"><title>nats_server-&gt;streaming_module</title><path fill="none" stroke="#000" stroke-width="2" d="M143.3721,-92C143.3721,-92 195.4077,-92 195.4077,-92"/><polygon fill="#000" stroke="#000" stroke-width="2" points="195.408 -95.5 205.408 -92 195.408 -88.5 195.408 -95.5"/><polygon fill="#000" stroke="#000" stroke-width="2" points="143.372 -88.5 133.372 -92 143.372 -95.5 143.372 -88.5"/></g><g id="node4" class="node"><title>storage</title><path fill="none" stroke="#000" d="M281.9621,-36C281.9621,-36 249.1033,-36 249.1033,-36 243.1033,-36 237.1033,-30 237.1033,-24 237.1033,-24 237.1033,-12 237.1033,-12 237.1033,-6 243.1033,0 249.1033,0 249.1033,0 281.9621,0 281.9621,0 287.9621,0 293.9621,-6 293.9621,-12 293.9621,-12 293.9621,-24 293.9621,-24 293.9621,-30 287.9621,-36 281.9621,-36"/><text x="265.533" y="-13.8" fill="#000" font-family="Times,serif" font-size="14" text-anchor="middle">storage</text></g><g id="edge3" class="edge"><title>streaming_module-&gt;storage</title><path fill="none" stroke="#000" stroke-width="2" d="M265.5327,-63.7079C265.5327,-63.7079 265.5327,-46.0817 265.5327,-46.0817"/><polygon fill="#000" stroke="#000" stroke-width="2" points="269.033 -46.082 265.533 -36.082 262.033 -46.082 269.033 -46.082"/><polygon fill="#000" stroke="#000" stroke-width="2" points="262.033 -63.708 265.533 -73.708 269.033 -63.708 262.033 -63.708"/></g></g></svg>