<svg xmlns="http://www.w3.org/2000/svg" xmlns:xlink="http://www.w3.org/1999/xlink" width="324" height="80pt" viewBox="0 0 242.84 80"><g id="graph0" class="graph" transform="scale(1 1) rotate(0) translate(4 76)"><title>g</title><polygon fill="#fff" stroke="transparent" points="-4 4 -4 -76 238.845 -76 238.845 4 -4 4"/><g id="node1" class="node"><title>client</title><path fill="none" stroke="#000" d="M76.5917,-54C76.5917,-54 12.1358,-54 12.1358,-54 6.1358,-54 .1358,-48 .1358,-42 .1358,-42 .1358,-30 .1358,-30 .1358,-24 6.1358,-18 12.1358,-18 12.1358,-18 76.5917,-18 76.5917,-18 82.5917,-18 88.5917,-24 88.5917,-30 88.5917,-30 88.5917,-42 88.5917,-42 88.5917,-48 82.5917,-54 76.5917,-54"/><text x="44.364" y="-31.8" fill="#000" font-family="Times,serif" font-size="14" text-anchor="middle">NATS Client</text></g><g id="node2" class="node"><title>natsserver</title><ellipse cx="198.845" cy="-36" fill="none" stroke="#000" rx="36" ry="36"/><text x="198.845" y="-31.8" fill="#000" font-family="Times,serif" font-size="14" text-anchor="middle">nats-server</text></g><g id="edge1" class="edge"><title>client-&gt;natsserver</title><path fill="none" stroke="#000" d="M88.6318,-36C108.5997,-36 132.1868,-36 152.4062,-36"/><polygon fill="#000" stroke="#000" points="152.636 -39.5 162.636 -36 152.636 -32.5 152.636 -39.5"/><text x="125.786" y="-38.8" fill="#000" font-family="Times,serif" font-size="14" text-anchor="middle">PING</text></g><g id="edge2" class="edge"><title>natsserver-&gt;client</title><path fill="none" stroke="#000" d="M165.2729,-22.9664C158.6007,-20.9033 151.5753,-19.0922 144.8447,-18 128.1225,-15.2864 123.5016,-15.6277 106.7275,-18 104.0479,-18.379 101.3222,-18.8453 98.5826,-19.3791"/><polygon fill="#000" stroke="#000" points="97.668 -15.997 88.66 -21.573 99.179 -22.832 97.668 -15.997"/><text x="125.786" y="-20.8" fill="#000" font-family="Times,serif" font-size="14" text-anchor="middle">PONG</text></g></g></svg>