<svg xmlns="http://www.w3.org/2000/svg" xmlns:xlink="http://www.w3.org/1999/xlink" width="296pt" height="228" viewBox="0 0 296 171"><g id="graph0" class="graph" transform="scale(1 1) rotate(0) translate(4 167)"><title>nats</title><polygon fill="#fff" stroke="transparent" points="-4 4 -4 -167 292 -167 292 4 -4 4"/><g id="node1" class="node"><title>publisher</title><polygon fill="none" stroke="#000" points="4.302 -118.5 4.302 -162.5 111.698 -162.5 111.698 -118.5 4.302 -118.5"/><text x="58" y="-147.3" fill="#000" font-family="Times,serif" font-size="14" text-anchor="middle">Application 1</text><polyline fill="none" stroke="#000" points="4.302 -140.5 111.698 -140.5"/><text x="58" y="-125.3" fill="#000" font-family="Times,serif" font-size="14" text-anchor="middle">NATS Publisher</text></g><g id="node3" class="node"><title>natsserver</title><polygon fill="none" stroke="#000" points="288 -82 0 -82 0 -81 288 -81 288 -82"/></g><g id="edge1" class="edge"><title>publisher:nats--natsserver</title><path fill="none" stroke="#000" stroke-width="2" d="M58,-118.3672C58,-105.5168 58,-85.6791 58,-82.0725"/></g><g id="node2" class="node"><title>application</title><polygon fill="none" stroke="#000" points="183.702 -118.5 183.702 -162.5 276.298 -162.5 276.298 -118.5 183.702 -118.5"/><text x="230" y="-147.3" fill="#000" font-family="Times,serif" font-size="14" text-anchor="middle">Application 3</text><polyline fill="none" stroke="#000" points="183.702 -140.5 276.298 -140.5"/></g><g id="edge2" class="edge"><title>application:nats--natsserver</title><path fill="none" stroke="#000" d="M230,-118.3672C230,-105.5168 230,-85.6791 230,-82.0725"/></g><g id="node4" class="node"><title>subscriber</title><polygon fill="none" stroke="#000" points="86.809 -.5 86.809 -44.5 201.191 -44.5 201.191 -.5 86.809 -.5"/><text x="144" y="-29.3" fill="#000" font-family="Times,serif" font-size="14" text-anchor="middle">NATS Subscriber</text><polyline fill="none" stroke="#000" points="86.809 -22.5 201.191 -22.5"/><text x="144" y="-7.3" fill="#000" font-family="Times,serif" font-size="14" text-anchor="middle">Application 2</text></g><g id="edge3" class="edge"><title>natsserver--subscriber:nats</title><path fill="none" stroke="#000" stroke-width="2" d="M144,-80.9609C144,-80.9609 144,-54.7842 144,-54.7842"/><polygon fill="#000" stroke="#000" stroke-width="2" points="147.5 -54.784 144 -44.784 140.5 -54.784 147.5 -54.784"/></g></g></svg>