<svg xmlns="http://www.w3.org/2000/svg" xmlns:xlink="http://www.w3.org/1999/xlink" width="359pt" height="152pt" viewBox="0 0 358.71 152"><g id="graph0" class="graph" transform="scale(1 1) rotate(0) translate(4 148)"><title>nats_pub_sub</title><polygon fill="#fff" stroke="transparent" points="-4 4 -4 -148 354.707 -148 354.707 4 -4 4"/><g id="node1" class="node"><title>publisher</title><path fill="none" stroke="#000" d="M56.8346,-90C56.8346,-90 12.0551,-90 12.0551,-90 6.0551,-90 .0551,-84 .0551,-78 .0551,-78 .0551,-66 .0551,-66 .0551,-60 6.0551,-54 12.0551,-54 12.0551,-54 56.8346,-54 56.8346,-54 62.8346,-54 68.8346,-60 68.8346,-66 68.8346,-66 68.8346,-78 68.8346,-78 68.8346,-84 62.8346,-90 56.8346,-90"/><text x="34.445" y="-67.8" fill="#000" font-family="Times,serif" font-size="14" text-anchor="middle">Publisher</text></g><g id="node2" class="node"><title>subject</title><ellipse cx="171.86" cy="-72" fill="none" stroke="#000" rx="36.766" ry="36.766"/><text x="171.86" y="-67.8" fill="#000" font-family="Times,serif" font-size="14" text-anchor="middle">Subject</text></g><g id="edge1" class="edge"><title>publisher-&gt;subject</title><path fill="none" stroke="#000" d="M69.1206,-72C85.9478,-72 106.4184,-72 124.6452,-72"/><polygon fill="#000" stroke="#000" points="124.787 -75.5 134.787 -72 124.787 -68.5 124.787 -75.5"/><text x="102.059" y="-74.8" fill="#000" font-family="Times,serif" font-size="14" text-anchor="middle">msg1</text></g><g id="node3" class="node"><title>sub1</title><path fill="none" stroke="#000" d="M338.6453,-144C338.6453,-144 286.8931,-144 286.8931,-144 280.8931,-144 274.8931,-138 274.8931,-132 274.8931,-132 274.8931,-120 274.8931,-120 274.8931,-114 280.8931,-108 286.8931,-108 286.8931,-108 338.6453,-108 338.6453,-108 344.6453,-108 350.6453,-114 350.6453,-120 350.6453,-120 350.6453,-132 350.6453,-132 350.6453,-138 344.6453,-144 338.6453,-144"/><text x="312.769" y="-121.8" fill="#000" font-family="Times,serif" font-size="14" text-anchor="middle">Subscriber</text></g><g id="edge2" class="edge"><title>subject-&gt;sub1</title><path fill="none" stroke="#000" d="M206.3306,-85.2099C224.0345,-91.9945 245.8822,-100.3671 265.1678,-107.7579"/><polygon fill="#000" stroke="#000" points="264.101 -111.097 274.691 -111.407 266.606 -104.561 264.101 -111.097"/><text x="241.662" y="-105.8" fill="#000" font-family="Times,serif" font-size="14" text-anchor="middle">msg1</text></g><g id="node4" class="node"><title>sub2</title><path fill="none" stroke="#000" d="M338.6453,-90C338.6453,-90 286.8931,-90 286.8931,-90 280.8931,-90 274.8931,-84 274.8931,-78 274.8931,-78 274.8931,-66 274.8931,-66 274.8931,-60 280.8931,-54 286.8931,-54 286.8931,-54 338.6453,-54 338.6453,-54 344.6453,-54 350.6453,-60 350.6453,-66 350.6453,-66 350.6453,-78 350.6453,-78 350.6453,-84 344.6453,-90 338.6453,-90"/><text x="312.769" y="-67.8" fill="#000" font-family="Times,serif" font-size="14" text-anchor="middle">Subscriber</text></g><g id="edge3" class="edge"><title>subject-&gt;sub2</title><path fill="none" stroke="#000" d="M208.5147,-72C225.6358,-72 246.2469,-72 264.6064,-72"/><polygon fill="#000" stroke="#000" points="264.824 -75.5 274.824 -72 264.824 -68.5 264.824 -75.5"/><text x="241.662" y="-74.8" fill="#000" font-family="Times,serif" font-size="14" text-anchor="middle">msg1</text></g><g id="node5" class="node"><title>sub3</title><path fill="none" stroke="#000" d="M338.6453,-36C338.6453,-36 286.8931,-36 286.8931,-36 280.8931,-36 274.8931,-30 274.8931,-24 274.8931,-24 274.8931,-12 274.8931,-12 274.8931,-6 280.8931,0 286.8931,0 286.8931,0 338.6453,0 338.6453,0 344.6453,0 350.6453,-6 350.6453,-12 350.6453,-12 350.6453,-24 350.6453,-24 350.6453,-30 344.6453,-36 338.6453,-36"/><text x="312.769" y="-13.8" fill="#000" font-family="Times,serif" font-size="14" text-anchor="middle">Subscriber</text></g><g id="edge4" class="edge"><title>subject-&gt;sub3</title><path fill="none" stroke="#000" d="M206.3306,-58.7901C224.0345,-52.0055 245.8822,-43.6329 265.1678,-36.2421"/><polygon fill="#000" stroke="#000" points="266.606 -39.439 274.691 -32.593 264.101 -32.903 266.606 -39.439"/><text x="241.662" y="-51.8" fill="#000" font-family="Times,serif" font-size="14" text-anchor="middle">msg1</text></g></g></svg>