<svg xmlns="http://www.w3.org/2000/svg" xmlns:xlink="http://www.w3.org/1999/xlink" width="584pt" height="188pt" viewBox="0 0 584 188"><g id="graph0" class="graph" transform="scale(1 1) rotate(0) translate(4 184)"><title>nats_pub_sub</title><polygon fill="#fff" stroke="transparent" points="-4 4 -4 -184 580 -184 580 4 -4 4"/><g id="node1" class="node"><title>sub1</title><polygon fill="none" stroke="#000" points="170.156 -180 79.844 -180 79.844 -144 170.156 -144 170.156 -180"/><text x="125" y="-164.8" fill="#000" font-family="Times,serif" font-size="14" text-anchor="middle">SUB</text><text x="125" y="-150.8" fill="#000" font-family="Times,serif" font-size="14" text-anchor="middle">com.msg.one</text></g><g id="node2" class="node"><title>pub1</title><polygon fill="none" stroke="#000" points="333.156 -180 242.844 -180 242.844 -144 333.156 -144 333.156 -180"/><text x="288" y="-164.8" fill="#000" font-family="Times,serif" font-size="14" text-anchor="middle">PUB</text><text x="288" y="-150.8" fill="#000" font-family="Times,serif" font-size="14" text-anchor="middle">com.msg.one</text></g><g id="node4" class="node"><title>natsserver</title><polygon fill="none" stroke="#000" points="576 -108 0 -108 0 -72 576 -72 576 -108"/><text x="288" y="-85.8" fill="#000" font-family="Times,serif" font-size="14" text-anchor="middle">NATS</text></g><g id="edge1" class="edge"><title>pub1-&gt;natsserver</title><path fill="none" stroke="#000" stroke-width="2" d="M288,-143.8314C288,-143.8314 288,-118.4133 288,-118.4133"/><polygon fill="#000" stroke="#000" stroke-width="2" points="291.5 -118.413 288 -108.413 284.5 -118.413 291.5 -118.413"/></g><g id="node3" class="node"><title>non_active</title><polygon fill="none" stroke="#000" points="487.09 -180 404.91 -180 404.91 -144 487.09 -144 487.09 -180"/><text x="446" y="-164.8" fill="#000" font-family="Times,serif" font-size="14" text-anchor="middle">Non-Active</text><text x="446" y="-150.8" fill="#000" font-family="Times,serif" font-size="14" text-anchor="middle">Subscriber</text></g><g id="edge2" class="edge"><title>natsserver-&gt;sub1</title><path fill="none" stroke="#000" stroke-width="2" d="M125,-108.1686C125,-108.1686 125,-133.5867 125,-133.5867"/><polygon fill="#000" stroke="#000" stroke-width="2" points="121.5 -133.587 125 -143.587 128.5 -133.587 121.5 -133.587"/></g><g id="edge3" class="edge"><title>natsserver-&gt;non_active</title><path fill="none" stroke="red" stroke-dasharray="5 2" d="M446,-108.1686C446,-119 446,-132.7124 446,-143.5867"/></g><g id="node5" class="node"><title>sub2</title><polygon fill="none" stroke="#000" points="170.156 -36 79.844 -36 79.844 0 170.156 0 170.156 -36"/><text x="125" y="-20.8" fill="#000" font-family="Times,serif" font-size="14" text-anchor="middle">SUB</text><text x="125" y="-6.8" fill="#000" font-family="Times,serif" font-size="14" text-anchor="middle">com.msg.one</text></g><g id="edge4" class="edge"><title>natsserver-&gt;sub2</title><path fill="none" stroke="#000" stroke-width="2" d="M125,-71.8314C125,-71.8314 125,-46.4133 125,-46.4133"/><polygon fill="#000" stroke="#000" stroke-width="2" points="128.5 -46.413 125 -36.413 121.5 -46.413 128.5 -46.413"/></g><g id="node6" class="node"><title>sub3</title><polygon fill="none" stroke="#000" points="333.942 -36 242.058 -36 242.058 0 333.942 0 333.942 -36"/><text x="288" y="-20.8" fill="#000" font-family="Times,serif" font-size="14" text-anchor="middle">SUB</text><text x="288" y="-6.8" fill="#000" font-family="Times,serif" font-size="14" text-anchor="middle">com.msg.two</text></g><g id="edge5" class="edge"><title>natsserver-&gt;sub3</title><path fill="none" stroke="red" stroke-dasharray="5 2" d="M288,-71.8314C288,-61 288,-47.2876 288,-36.4133"/></g><g id="node7" class="node"><title>sub4</title><polygon fill="none" stroke="#000" points="482.943 -36 405.057 -36 405.057 0 482.943 0 482.943 -36"/><text x="444" y="-20.8" fill="#000" font-family="Times,serif" font-size="14" text-anchor="middle">SUB</text><text x="444" y="-6.8" fill="#000" font-family="Times,serif" font-size="14" text-anchor="middle">com.msg.*</text></g><g id="edge6" class="edge"><title>natsserver-&gt;sub4</title><path fill="none" stroke="#000" stroke-width="2" d="M444,-71.8314C444,-71.8314 444,-46.4133 444,-46.4133"/><polygon fill="#000" stroke="#000" stroke-width="2" points="447.5 -46.413 444 -36.413 440.5 -46.413 447.5 -46.413"/></g></g></svg>