<svg xmlns="http://www.w3.org/2000/svg" xmlns:xlink="http://www.w3.org/1999/xlink" width="500pt" height="152pt" viewBox="0 0 499.52 152"><g id="graph0" class="graph" transform="scale(1 1) rotate(0) translate(4 148)"><title>g</title><polygon fill="#fff" stroke="transparent" points="-4 4 -4 -148 495.522 -148 495.522 4 -4 4"/><g id="node1" class="node"><title>publisher</title><path fill="none" stroke="#000" d="M77.2514,-90C77.2514,-90 12.2486,-90 12.2486,-90 6.2486,-90 .2486,-84 .2486,-78 .2486,-78 .2486,-66 .2486,-66 .2486,-60 6.2486,-54 12.2486,-54 12.2486,-54 77.2514,-54 77.2514,-54 83.2514,-54 89.2514,-60 89.2514,-66 89.2514,-66 89.2514,-78 89.2514,-78 89.2514,-84 83.2514,-90 77.2514,-90"/><text x="44.75" y="-67.8" fill="#000" font-family="Times,serif" font-size="14" text-anchor="middle">PUB updates</text></g><g id="node2" class="node"><title>subject</title><ellipse cx="234.687" cy="-72" fill="none" stroke="#000" rx="48.801" ry="48.801"/><text x="234.687" y="-67.8" fill="#000" font-family="Times,serif" font-size="14" text-anchor="middle">nats-server</text></g><g id="edge1" class="edge"><title>publisher-&gt;subject</title><path fill="none" stroke="#000" d="M89.2817,-72C115.0626,-72 147.8295,-72 175.729,-72"/><polygon fill="#000" stroke="#000" points="175.766 -75.5 185.766 -72 175.766 -68.5 175.766 -75.5"/><text x="137.643" y="-74.8" fill="#000" font-family="Times,serif" font-size="14" text-anchor="middle">msgs 1,2,3</text></g><g id="node3" class="node"><title>sub1</title><path fill="none" stroke="#000" d="M479.5703,-144C479.5703,-144 365.3769,-144 365.3769,-144 359.3769,-144 353.3769,-138 353.3769,-132 353.3769,-132 353.3769,-120 353.3769,-120 353.3769,-114 359.3769,-108 365.3769,-108 365.3769,-108 479.5703,-108 479.5703,-108 485.5703,-108 491.5703,-114 491.5703,-120 491.5703,-120 491.5703,-132 491.5703,-132 491.5703,-138 485.5703,-144 479.5703,-144"/><text x="422.474" y="-121.8" fill="#000" font-family="Times,serif" font-size="14" text-anchor="middle">SUB updates workers</text></g><g id="edge2" class="edge"><title>subject-&gt;sub1</title><path fill="none" stroke="#000" d="M282.0733,-85.6265C302.7038,-91.559 327.3418,-98.6439 350.1777,-105.2106"/><polygon fill="#000" stroke="#000" points="349.259 -108.588 359.837 -107.988 351.194 -101.861 349.259 -108.588"/><text x="318.506" y="-102.8" fill="#000" font-family="Times,serif" font-size="14" text-anchor="middle">msg 2</text></g><g id="node4" class="node"><title>sub2</title><path fill="none" stroke="#000" d="M479.5703,-90C479.5703,-90 365.3769,-90 365.3769,-90 359.3769,-90 353.3769,-84 353.3769,-78 353.3769,-78 353.3769,-66 353.3769,-66 353.3769,-60 359.3769,-54 365.3769,-54 365.3769,-54 479.5703,-54 479.5703,-54 485.5703,-54 491.5703,-60 491.5703,-66 491.5703,-66 491.5703,-78 491.5703,-78 491.5703,-84 485.5703,-90 479.5703,-90"/><text x="422.474" y="-67.8" fill="#000" font-family="Times,serif" font-size="14" text-anchor="middle">SUB updates workers</text></g><g id="edge3" class="edge"><title>subject-&gt;sub2</title><path fill="none" stroke="#000" d="M284.0255,-72C302.1531,-72 323.1652,-72 343.2577,-72"/><polygon fill="#000" stroke="#000" points="343.345 -75.5 353.345 -72 343.344 -68.5 343.345 -75.5"/><text x="318.506" y="-74.8" fill="#000" font-family="Times,serif" font-size="14" text-anchor="middle">msg 1</text></g><g id="node5" class="node"><title>sub3</title><path fill="none" stroke="#000" d="M479.5703,-36C479.5703,-36 365.3769,-36 365.3769,-36 359.3769,-36 353.3769,-30 353.3769,-24 353.3769,-24 353.3769,-12 353.3769,-12 353.3769,-6 359.3769,0 365.3769,0 365.3769,0 479.5703,0 479.5703,0 485.5703,0 491.5703,-6 491.5703,-12 491.5703,-12 491.5703,-24 491.5703,-24 491.5703,-30 485.5703,-36 479.5703,-36"/><text x="422.474" y="-13.8" fill="#000" font-family="Times,serif" font-size="14" text-anchor="middle">SUB updates workers</text></g><g id="edge4" class="edge"><title>subject-&gt;sub3</title><path fill="none" stroke="#000" d="M282.0733,-58.3735C302.7038,-52.441 327.3418,-45.3561 350.1777,-38.7894"/><polygon fill="#000" stroke="#000" points="351.194 -42.139 359.837 -36.012 349.259 -35.412 351.194 -42.139"/><text x="318.506" y="-53.8" fill="#000" font-family="Times,serif" font-size="14" text-anchor="middle">msg 3</text></g></g></svg>