<svg xmlns="http://www.w3.org/2000/svg" xmlns:xlink="http://www.w3.org/1999/xlink" width="385pt" height="152pt" viewBox="0 0 385.26 152"><g id="graph0" class="graph" transform="scale(1 1) rotate(0) translate(4 148)"><title>nats_queues</title><polygon fill="#fff" stroke="transparent" points="-4 4 -4 -148 381.264 -148 381.264 4 -4 4"/><g id="node1" class="node"><title>publisher</title><path fill="none" stroke="#000" d="M56.8346,-90C56.8346,-90 12.0551,-90 12.0551,-90 6.0551,-90 .0551,-84 .0551,-78 .0551,-78 .0551,-66 .0551,-66 .0551,-60 6.0551,-54 12.0551,-54 12.0551,-54 56.8346,-54 56.8346,-54 62.8346,-54 68.8346,-60 68.8346,-66 68.8346,-66 68.8346,-78 68.8346,-78 68.8346,-84 62.8346,-90 56.8346,-90"/><text x="34.445" y="-67.8" fill="#000" font-family="Times,serif" font-size="14" text-anchor="middle">Publisher</text></g><g id="node2" class="node"><title>subject</title><ellipse cx="198.363" cy="-72" fill="none" stroke="#000" rx="33.375" ry="33.375"/><text x="198.363" y="-67.8" fill="#000" font-family="Times,serif" font-size="14" text-anchor="middle">Queue</text></g><g id="edge1" class="edge"><title>publisher-&gt;subject</title><path fill="none" stroke="#000" d="M69.2076,-72C94.18,-72 128.0202,-72 154.797,-72"/><polygon fill="#000" stroke="#000" points="155.05 -75.5 165.05 -72 155.05 -68.5 155.05 -75.5"/><text x="117.033" y="-74.8" fill="#000" font-family="Times,serif" font-size="14" text-anchor="middle">msgs 1,2,3</text></g><g id="node3" class="node"><title>sub1</title><path fill="none" stroke="#000" d="M365.2019,-144C365.2019,-144 313.4497,-144 313.4497,-144 307.4497,-144 301.4497,-138 301.4497,-132 301.4497,-132 301.4497,-120 301.4497,-120 301.4497,-114 307.4497,-108 313.4497,-108 313.4497,-108 365.2019,-108 365.2019,-108 371.2019,-108 377.2019,-114 377.2019,-120 377.2019,-120 377.2019,-132 377.2019,-132 377.2019,-138 371.2019,-144 365.2019,-144"/><text x="339.326" y="-121.8" fill="#000" font-family="Times,serif" font-size="14" text-anchor="middle">Subscriber</text></g><g id="edge2" class="edge"><title>subject-&gt;sub1</title><path fill="none" stroke="#000" d="M229.6471,-83.9844C247.9227,-90.9854 271.3539,-99.9614 291.8636,-107.8182"/><polygon fill="#000" stroke="#000" points="290.766 -111.146 301.356 -111.455 293.27 -104.609 290.766 -111.146"/><text x="266.469" y="-105.8" fill="#000" font-family="Times,serif" font-size="14" text-anchor="middle">msg 2</text></g><g id="node4" class="node"><title>sub2</title><path fill="none" stroke="#000" d="M365.2019,-90C365.2019,-90 313.4497,-90 313.4497,-90 307.4497,-90 301.4497,-84 301.4497,-78 301.4497,-78 301.4497,-66 301.4497,-66 301.4497,-60 307.4497,-54 313.4497,-54 313.4497,-54 365.2019,-54 365.2019,-54 371.2019,-54 377.2019,-60 377.2019,-66 377.2019,-66 377.2019,-78 377.2019,-78 377.2019,-84 371.2019,-90 365.2019,-90"/><text x="339.326" y="-67.8" fill="#000" font-family="Times,serif" font-size="14" text-anchor="middle">Subscriber</text></g><g id="edge3" class="edge"><title>subject-&gt;sub2</title><path fill="none" stroke="#000" d="M231.7691,-72C249.5052,-72 271.6202,-72 291.1768,-72"/><polygon fill="#000" stroke="#000" points="291.433 -75.5 301.433 -72 291.433 -68.5 291.433 -75.5"/><text x="266.469" y="-74.8" fill="#000" font-family="Times,serif" font-size="14" text-anchor="middle">msg 1</text></g><g id="node5" class="node"><title>sub3</title><path fill="none" stroke="#000" d="M365.2019,-36C365.2019,-36 313.4497,-36 313.4497,-36 307.4497,-36 301.4497,-30 301.4497,-24 301.4497,-24 301.4497,-12 301.4497,-12 301.4497,-6 307.4497,0 313.4497,0 313.4497,0 365.2019,0 365.2019,0 371.2019,0 377.2019,-6 377.2019,-12 377.2019,-12 377.2019,-24 377.2019,-24 377.2019,-30 371.2019,-36 365.2019,-36"/><text x="339.326" y="-13.8" fill="#000" font-family="Times,serif" font-size="14" text-anchor="middle">Subscriber</text></g><g id="edge4" class="edge"><title>subject-&gt;sub3</title><path fill="none" stroke="#000" d="M229.6471,-60.0156C247.9227,-53.0146 271.3539,-44.0386 291.8636,-36.1818"/><polygon fill="#000" stroke="#000" points="293.27 -39.391 301.356 -32.545 290.766 -32.854 293.27 -39.391"/><text x="266.469" y="-53.8" fill="#000" font-family="Times,serif" font-size="14" text-anchor="middle">msg 3</text></g></g></svg>