<svg xmlns="http://www.w3.org/2000/svg" xmlns:xlink="http://www.w3.org/1999/xlink" width="359pt" height="260" viewBox="0 0 358.71 195.23"><g id="graph0" class="graph" transform="scale(1 1) rotate(0) translate(4 191.231)"><title>nats_request_reply</title><polygon fill="#fff" stroke="transparent" points="-4 4 -4 -191.231 354.707 -191.231 354.707 4 -4 4"/><g id="node1" class="node"><title>publisher</title><path fill="none" stroke="#000" d="M56.8346,-49.231C56.8346,-49.231 12.0551,-49.231 12.0551,-49.231 6.0551,-49.231 .0551,-43.231 .0551,-37.231 .0551,-37.231 .0551,-25.231 .0551,-25.231 .0551,-19.231 6.0551,-13.231 12.0551,-13.231 12.0551,-13.231 56.8346,-13.231 56.8346,-13.231 62.8346,-13.231 68.8346,-19.231 68.8346,-25.231 68.8346,-25.231 68.8346,-37.231 68.8346,-37.231 68.8346,-43.231 62.8346,-49.231 56.8346,-49.231"/><text x="34.445" y="-27.031" fill="#000" font-family="Times,serif" font-size="14" text-anchor="middle">Publisher</text></g><g id="node2" class="node"><title>subject</title><ellipse cx="171.86" cy="-117.231" fill="none" stroke="#000" rx="36.766" ry="36.766"/><text x="171.86" y="-113.031" fill="#000" font-family="Times,serif" font-size="14" text-anchor="middle">Subject</text></g><g id="edge1" class="edge"><title>publisher-&gt;subject</title><path fill="none" stroke="#000" d="M63.2516,-49.2594C83.2612,-61.7822 110.1803,-78.6291 132.2123,-92.4176"/><polygon fill="#000" stroke="#000" points="130.367 -95.391 140.7 -97.73 134.08 -89.458 130.367 -95.391"/><text x="102.059" y="-85.031" fill="#000" font-family="Times,serif" font-size="14" text-anchor="middle">msg1</text></g><g id="node3" class="node"><title>reply</title><ellipse cx="171.86" cy="-31.231" fill="none" stroke="#000" rx="31.464" ry="31.464"/><text x="171.86" y="-27.031" fill="#000" font-family="Times,serif" font-size="14" text-anchor="middle">Reply</text></g><g id="node4" class="node"><title>sub1</title><path fill="none" stroke="#000" d="M338.6453,-187.231C338.6453,-187.231 286.8931,-187.231 286.8931,-187.231 280.8931,-187.231 274.8931,-181.231 274.8931,-175.231 274.8931,-175.231 274.8931,-163.231 274.8931,-163.231 274.8931,-157.231 280.8931,-151.231 286.8931,-151.231 286.8931,-151.231 338.6453,-151.231 338.6453,-151.231 344.6453,-151.231 350.6453,-157.231 350.6453,-163.231 350.6453,-163.231 350.6453,-175.231 350.6453,-175.231 350.6453,-181.231 344.6453,-187.231 338.6453,-187.231"/><text x="312.769" y="-165.031" fill="#000" font-family="Times,serif" font-size="14" text-anchor="middle">Subscriber</text></g><g id="edge4" class="edge"><title>subject-&gt;sub1</title><path fill="none" stroke="#000" stroke-dasharray="1 5" d="M206.3306,-129.9516C224.0345,-136.4849 245.8822,-144.5474 265.1678,-151.6645"/><polygon fill="#000" stroke="#000" points="264.098 -155 274.691 -155.179 266.521 -148.433 264.098 -155"/><text x="241.662" y="-150.031" fill="#000" font-family="Times,serif" font-size="14" text-anchor="middle">msg1</text></g><g id="node5" class="node"><title>sub2</title><path fill="none" stroke="#000" d="M338.6453,-133.231C338.6453,-133.231 286.8931,-133.231 286.8931,-133.231 280.8931,-133.231 274.8931,-127.231 274.8931,-121.231 274.8931,-121.231 274.8931,-109.231 274.8931,-109.231 274.8931,-103.231 280.8931,-97.231 286.8931,-97.231 286.8931,-97.231 338.6453,-97.231 338.6453,-97.231 344.6453,-97.231 350.6453,-103.231 350.6453,-109.231 350.6453,-109.231 350.6453,-121.231 350.6453,-121.231 350.6453,-127.231 344.6453,-133.231 338.6453,-133.231"/><text x="312.769" y="-111.031" fill="#000" font-family="Times,serif" font-size="14" text-anchor="middle">Subscriber</text></g><g id="edge5" class="edge"><title>subject-&gt;sub2</title><path fill="none" stroke="#000" stroke-dasharray="1 5" d="M208.5147,-116.7107C225.6358,-116.4677 246.2469,-116.1751 264.6064,-115.9146"/><polygon fill="#000" stroke="#000" points="264.875 -119.411 274.824 -115.769 264.776 -112.412 264.875 -119.411"/><text x="241.662" y="-119.031" fill="#000" font-family="Times,serif" font-size="14" text-anchor="middle">msg1</text></g><g id="node6" class="node"><title>sub3</title><path fill="none" stroke="#000" d="M338.6453,-49.231C338.6453,-49.231 286.8931,-49.231 286.8931,-49.231 280.8931,-49.231 274.8931,-43.231 274.8931,-37.231 274.8931,-37.231 274.8931,-25.231 274.8931,-25.231 274.8931,-19.231 280.8931,-13.231 286.8931,-13.231 286.8931,-13.231 338.6453,-13.231 338.6453,-13.231 344.6453,-13.231 350.6453,-19.231 350.6453,-25.231 350.6453,-25.231 350.6453,-37.231 350.6453,-37.231 350.6453,-43.231 344.6453,-49.231 338.6453,-49.231"/><text x="312.769" y="-27.031" fill="#000" font-family="Times,serif" font-size="14" text-anchor="middle">Subscriber</text></g><g id="edge6" class="edge"><title>subject-&gt;sub3</title><path fill="none" stroke="#000" d="M203.1327,-98.1448C224.1767,-85.3011 252.059,-68.2838 274.4388,-54.6249"/><polygon fill="#000" stroke="#000" points="276.319 -57.578 283.031 -49.381 272.672 -51.603 276.319 -57.578"/><text x="241.662" y="-85.031" fill="#000" font-family="Times,serif" font-size="14" text-anchor="middle">msg1</text></g><g id="edge8" class="edge"><title>reply-&gt;publisher</title><path fill="none" stroke="#000" d="M140.9468,-36.9759C122.7803,-38.0548 99.4966,-38.2651 79.3354,-37.6068"/><polygon fill="#000" stroke="#000" points="79.257 -34.101 69.121 -37.183 78.967 -41.095 79.257 -34.101"/></g><g id="edge7" class="edge"><title>sub3-&gt;reply</title><path fill="none" stroke="#000" d="M274.891,-37.2937C255.7517,-38.1623 232.4997,-38.2075 212.9317,-37.4295"/><polygon fill="#000" stroke="#000" points="212.943 -33.926 202.784 -36.93 212.599 -40.917 212.943 -33.926"/></g></g></svg>