<svg xmlns="http://www.w3.org/2000/svg" xmlns:xlink="http://www.w3.org/1999/xlink" width="540" height="108" viewBox="0 0 404.56 81.27"><g id="graph0" class="graph" transform="scale(1 1) rotate(0) translate(4 77.2658)"><title>nats_pub_sub</title><polygon fill="#fff" stroke="transparent" points="-4 4 -4 -77.266 400.563 -77.266 400.563 4 -4 4"/><g id="node1" class="node"><title>publisher</title><path fill="none" stroke="#000" d="M56.8346,-54.6329C56.8346,-54.6329 12.0551,-54.6329 12.0551,-54.6329 6.0551,-54.6329 .0551,-48.6329 .0551,-42.6329 .0551,-42.6329 .0551,-30.6329 .0551,-30.6329 .0551,-24.6329 6.0551,-18.6329 12.0551,-18.6329 12.0551,-18.6329 56.8346,-18.6329 56.8346,-18.6329 62.8346,-18.6329 68.8346,-24.6329 68.8346,-30.6329 68.8346,-30.6329 68.8346,-42.6329 68.8346,-42.6329 68.8346,-48.6329 62.8346,-54.6329 56.8346,-54.6329"/><text x="34.445" y="-32.433" fill="#000" font-family="Times,serif" font-size="14" text-anchor="middle">Publisher</text></g><g id="node2" class="node"><title>subject</title><ellipse cx="194.788" cy="-36.633" fill="none" stroke="#000" rx="36.766" ry="36.766"/><text x="194.788" y="-32.433" fill="#000" font-family="Times,serif" font-size="14" text-anchor="middle">Subject</text></g><g id="edge1" class="edge"><title>publisher-&gt;subject</title><path fill="none" stroke="#000" d="M68.8499,-47.9423C74.8047,-49.4755 80.9813,-50.8046 86.8896,-51.6329 110.334,-54.9197 116.6938,-54.7952 140.1553,-51.6329 143.372,-51.1993 146.6673,-50.6283 149.9674,-49.9624"/><polygon fill="#000" stroke="#000" points="150.834 -53.355 159.808 -47.723 149.281 -46.529 150.834 -53.355"/><text x="113.522" y="-56.433" fill="#000" font-family="Times,serif" font-size="14" text-anchor="middle">updates.1</text></g><g id="edge2" class="edge"><title>publisher-&gt;subject</title><path fill="none" stroke="#000" d="M68.8497,-34.383C74.8603,-34.0705 81.0553,-33.7996 86.8896,-33.6329 110.5536,-32.9566 116.4906,-32.9837 140.1553,-33.6329 142.6894,-33.7024 145.2889,-33.7901 147.9126,-33.8913"/><polygon fill="#000" stroke="#000" points="147.921 -37.395 158.065 -34.339 148.229 -30.402 147.921 -37.395"/><text x="113.522" y="-36.433" fill="#000" font-family="Times,serif" font-size="14" text-anchor="middle">updates.2</text></g><g id="edge3" class="edge"><title>publisher-&gt;subject</title><path fill="none" stroke="#000" d="M69.0978,-19.8534C74.9167,-17.6923 80.9851,-15.8212 86.8896,-14.6329 110.0979,-9.9622 116.914,-10.1291 140.1553,-14.6329 144.0529,-15.3882 148.0251,-16.4205 151.9594,-17.6284"/><polygon fill="#000" stroke="#000" points="151.003 -21 161.597 -20.935 153.274 -14.379 151.003 -21"/><text x="113.522" y="-17.433" fill="#000" font-family="Times,serif" font-size="14" text-anchor="middle">updates.3</text></g><g id="node3" class="node"><title>sub</title><path fill="none" stroke="#000" d="M384.5008,-54.6329C384.5008,-54.6329 332.7486,-54.6329 332.7486,-54.6329 326.7486,-54.6329 320.7486,-48.6329 320.7486,-42.6329 320.7486,-42.6329 320.7486,-30.6329 320.7486,-30.6329 320.7486,-24.6329 326.7486,-18.6329 332.7486,-18.6329 332.7486,-18.6329 384.5008,-18.6329 384.5008,-18.6329 390.5008,-18.6329 396.5008,-24.6329 396.5008,-30.6329 396.5008,-30.6329 396.5008,-42.6329 396.5008,-42.6329 396.5008,-48.6329 390.5008,-54.6329 384.5008,-54.6329"/><text x="358.625" y="-32.433" fill="#000" font-family="Times,serif" font-size="14" text-anchor="middle">Subscriber</text></g><g id="edge4" class="edge"><title>subject-&gt;sub</title><path fill="none" stroke="#000" d="M231.5563,-36.6329C254.8568,-36.6329 285.2447,-36.6329 310.4609,-36.6329"/><polygon fill="#000" stroke="#000" points="310.557 -40.133 320.557 -36.633 310.557 -33.133 310.557 -40.133"/><text x="276.054" y="-39.433" fill="#000" font-family="Times,serif" font-size="14" text-anchor="middle">updates.*</text></g></g></svg>