<svg xmlns="http://www.w3.org/2000/svg" xmlns:xlink="http://www.w3.org/1999/xlink" width="424pt" height="98pt" viewBox="0 0 424.34 98"><g id="graph0" class="graph" transform="scale(1 1) rotate(0) translate(4 94)"><title>g</title><polygon fill="#fff" stroke="transparent" points="-4 4 -4 -94 420.338 -94 420.338 4 -4 4"/><g id="node1" class="node"><title>publisher</title><path fill="none" stroke="#000" d="M100.7467,-63C100.7467,-63 12.0843,-63 12.0843,-63 6.0843,-63 .0843,-57 .0843,-51 .0843,-51 .0843,-39 .0843,-39 .0843,-33 6.0843,-27 12.0843,-27 12.0843,-27 100.7467,-27 100.7467,-27 106.7467,-27 112.7467,-33 112.7467,-39 112.7467,-39 112.7467,-51 112.7467,-51 112.7467,-57 106.7467,-63 100.7467,-63"/><text x="56.416" y="-40.8" fill="#000" font-family="Times,serif" font-size="14" text-anchor="middle">PUB time.us.east</text></g><g id="node2" class="node"><title>subject</title><ellipse cx="208.169" cy="-45" fill="none" stroke="#000" rx="36" ry="36"/><text x="208.169" y="-40.8" fill="#000" font-family="Times,serif" font-size="14" text-anchor="middle">nats-server</text></g><g id="edge1" class="edge"><title>publisher-&gt;subject</title><path fill="none" stroke="#000" d="M112.9229,-45C128.9445,-45 146.2009,-45 161.5658,-45"/><polygon fill="#000" stroke="#000" points="161.863 -48.5 171.862 -45 161.862 -41.5 161.863 -48.5"/><text x="142.5" y="-47.8" fill="#000" font-family="Times,serif" font-size="14" text-anchor="middle">msg</text></g><g id="node3" class="node"><title>sub1</title><path fill="none" stroke="#000" d="M401.8059,-90C401.8059,-90 318.0389,-90 318.0389,-90 312.0389,-90 306.0389,-84 306.0389,-78 306.0389,-78 306.0389,-66 306.0389,-66 306.0389,-60 312.0389,-54 318.0389,-54 318.0389,-54 401.8059,-54 401.8059,-54 407.8059,-54 413.8059,-60 413.8059,-66 413.8059,-66 413.8059,-78 413.8059,-78 413.8059,-84 407.8059,-90 401.8059,-90"/><text x="359.922" y="-67.8" fill="#000" font-family="Times,serif" font-size="14" text-anchor="middle">SUB time.*.east</text></g><g id="edge2" class="edge"><title>subject-&gt;sub1</title><path fill="none" stroke="#000" d="M243.7484,-51.3303C259.4187,-54.1184 278.3195,-57.4812 296.2807,-60.6769"/><polygon fill="#000" stroke="#000" points="295.678 -64.124 306.136 -62.43 296.904 -57.233 295.678 -64.124"/><text x="273.838" y="-60.8" fill="#000" font-family="Times,serif" font-size="14" text-anchor="middle">msg</text></g><g id="node4" class="node"><title>sub2</title><path fill="none" stroke="#000" d="M404.2535,-36C404.2535,-36 315.5912,-36 315.5912,-36 309.5912,-36 303.5912,-30 303.5912,-24 303.5912,-24 303.5912,-12 303.5912,-12 303.5912,-6 309.5912,0 315.5912,0 315.5912,0 404.2535,0 404.2535,0 410.2535,0 416.2535,-6 416.2535,-12 416.2535,-12 416.2535,-24 416.2535,-24 416.2535,-30 410.2535,-36 404.2535,-36"/><text x="359.922" y="-13.8" fill="#000" font-family="Times,serif" font-size="14" text-anchor="middle">SUB time.us.east</text></g><g id="edge3" class="edge"><title>subject-&gt;sub2</title><path fill="none" stroke="#000" d="M243.7484,-38.6697C258.6145,-36.0247 276.388,-32.8624 293.5086,-29.8163"/><polygon fill="#000" stroke="#000" points="294.254 -33.239 303.487 -28.041 293.028 -26.347 294.254 -33.239"/><text x="273.838" y="-36.8" fill="#000" font-family="Times,serif" font-size="14" text-anchor="middle">msg</text></g></g></svg>