<svg xmlns="http://www.w3.org/2000/svg" xmlns:xlink="http://www.w3.org/1999/xlink" width="374pt" height="98pt" viewBox="0 0 373.81 98"><g id="graph0" class="graph" transform="scale(1 1) rotate(0) translate(4 94)"><title>g</title><polygon fill="#fff" stroke="transparent" points="-4 4 -4 -94 369.807 -94 369.807 4 -4 4"/><g id="node1" class="node"><title>publisher</title><path fill="none" stroke="#000" d="M75.3492,-63C75.3492,-63 12.2162,-63 12.2162,-63 6.2162,-63 .2162,-57 .2162,-51 .2162,-51 .2162,-39 .2162,-39 .2162,-33 6.2162,-27 12.2162,-27 12.2162,-27 75.3492,-27 75.3492,-27 81.3492,-27 87.3492,-33 87.3492,-39 87.3492,-39 87.3492,-51 87.3492,-51 87.3492,-57 81.3492,-63 75.3492,-63"/><text x="43.783" y="-40.8" fill="#000" font-family="Times,serif" font-size="14" text-anchor="middle">PUB time.us</text></g><g id="node2" class="node"><title>subject</title><ellipse cx="182.903" cy="-45" fill="none" stroke="#000" rx="36" ry="36"/><text x="182.903" y="-40.8" fill="#000" font-family="Times,serif" font-size="14" text-anchor="middle">nats-server</text></g><g id="edge1" class="edge"><title>publisher-&gt;subject</title><path fill="none" stroke="#000" d="M87.4196,-45C103.1079,-45 120.8492,-45 136.7449,-45"/><polygon fill="#000" stroke="#000" points="136.884 -48.5 146.884 -45 136.884 -41.5 136.884 -48.5"/><text x="117.234" y="-47.8" fill="#000" font-family="Times,serif" font-size="14" text-anchor="middle">msg</text></g><g id="node3" class="node"><title>sub1</title><path fill="none" stroke="#000" d="M353.5904,-90C353.5904,-90 290.4574,-90 290.4574,-90 284.4574,-90 278.4574,-84 278.4574,-78 278.4574,-78 278.4574,-66 278.4574,-66 278.4574,-60 284.4574,-54 290.4574,-54 290.4574,-54 353.5904,-54 353.5904,-54 359.5904,-54 365.5904,-60 365.5904,-66 365.5904,-66 365.5904,-78 365.5904,-78 365.5904,-84 359.5904,-90 353.5904,-90"/><text x="322.024" y="-67.8" fill="#000" font-family="Times,serif" font-size="14" text-anchor="middle">SUB time.us</text></g><g id="edge2" class="edge"><title>subject-&gt;sub1</title><path fill="none" stroke="#000" d="M218.3693,-51.8831C233.5027,-54.8201 251.4966,-58.3123 268.2103,-61.5561"/><polygon fill="#000" stroke="#000" points="267.931 -65.067 278.415 -63.536 269.265 -58.195 267.931 -65.067"/><text x="248.572" y="-61.8" fill="#000" font-family="Times,serif" font-size="14" text-anchor="middle">msg</text></g><g id="node4" class="node"><title>sub2</title><path fill="none" stroke="#000" d="M353.5904,-36C353.5904,-36 290.4574,-36 290.4574,-36 284.4574,-36 278.4574,-30 278.4574,-24 278.4574,-24 278.4574,-12 278.4574,-12 278.4574,-6 284.4574,0 290.4574,0 290.4574,0 353.5904,0 353.5904,0 359.5904,0 365.5904,-6 365.5904,-12 365.5904,-12 365.5904,-24 365.5904,-24 365.5904,-30 359.5904,-36 353.5904,-36"/><text x="322.024" y="-13.8" fill="#000" font-family="Times,serif" font-size="14" text-anchor="middle">SUB time.us</text></g><g id="edge3" class="edge"><title>subject-&gt;sub2</title><path fill="none" stroke="#000" d="M218.3693,-38.1169C233.5027,-35.1799 251.4966,-31.6877 268.2103,-28.4439"/><polygon fill="#000" stroke="#000" points="269.265 -31.805 278.415 -26.463 267.931 -24.933 269.265 -31.805"/><text x="248.572" y="-35.8" fill="#000" font-family="Times,serif" font-size="14" text-anchor="middle">msg</text></g></g></svg>