<svg xmlns="http://www.w3.org/2000/svg" xmlns:xlink="http://www.w3.org/1999/xlink" width="506pt" height="152pt" viewBox="0 0 505.96 152"><g id="graph0" class="graph" transform="scale(1 1) rotate(0) translate(4 148)"><title>g</title><polygon fill="#fff" stroke="transparent" points="-4 4 -4 -148 501.959 -148 501.959 4 -4 4"/><g id="node1" class="node"><title>publisher</title><path fill="none" stroke="#000" d="M141.4628,-90C141.4628,-90 12.1788,-90 12.1788,-90 6.1788,-90 .1788,-84 .1788,-78 .1788,-78 .1788,-66 .1788,-66 .1788,-60 6.1788,-54 12.1788,-54 12.1788,-54 141.4628,-54 141.4628,-54 147.4628,-54 153.4628,-60 153.4628,-66 153.4628,-66 153.4628,-78 153.4628,-78 153.4628,-84 147.4628,-90 141.4628,-90"/><text x="76.821" y="-67.8" fill="#000" font-family="Times,serif" font-size="14" text-anchor="middle">PUB time.us.east.atlanta</text></g><g id="node2" class="node"><title>subject</title><ellipse cx="248.98" cy="-72" fill="none" stroke="#000" rx="36" ry="36"/><text x="248.98" y="-67.8" fill="#000" font-family="Times,serif" font-size="14" text-anchor="middle">nats-server</text></g><g id="edge1" class="edge"><title>publisher-&gt;subject</title><path fill="none" stroke="#000" d="M153.5855,-72C170.3418,-72 187.5746,-72 202.7037,-72"/><polygon fill="#000" stroke="#000" points="202.81 -75.5 212.81 -72 202.81 -68.5 202.81 -75.5"/><text x="183.31" y="-74.8" fill="#000" font-family="Times,serif" font-size="14" text-anchor="middle">msg</text></g><g id="node3" class="node"><title>sub1</title><path fill="none" stroke="#000" d="M485.7802,-144C485.7802,-144 356.4962,-144 356.4962,-144 350.4962,-144 344.4962,-138 344.4962,-132 344.4962,-132 344.4962,-120 344.4962,-120 344.4962,-114 350.4962,-108 356.4962,-108 356.4962,-108 485.7802,-108 485.7802,-108 491.7802,-108 497.7802,-114 497.7802,-120 497.7802,-120 497.7802,-132 497.7802,-132 497.7802,-138 491.7802,-144 485.7802,-144"/><text x="421.138" y="-121.8" fill="#000" font-family="Times,serif" font-size="14" text-anchor="middle">SUB time.us.east.atlanta</text></g><g id="edge3" class="edge"><title>subject-&gt;sub1</title><path fill="none" stroke="#000" d="M283.4046,-82.7979C303.5855,-89.1279 329.7773,-97.3434 353.8947,-104.9081"/><polygon fill="#000" stroke="#000" points="353.135 -108.338 363.724 -107.991 355.23 -101.659 353.135 -108.338"/><text x="314.648" y="-97.8" fill="#000" font-family="Times,serif" font-size="14" text-anchor="middle">msg</text></g><g id="node4" class="node"><title>sub2</title><path fill="none" stroke="#000" d="M458.2036,-90C458.2036,-90 384.0727,-90 384.0727,-90 378.0727,-90 372.0727,-84 372.0727,-78 372.0727,-78 372.0727,-66 372.0727,-66 372.0727,-60 378.0727,-54 384.0727,-54 384.0727,-54 458.2036,-54 458.2036,-54 464.2036,-54 470.2036,-60 470.2036,-66 470.2036,-66 470.2036,-78 470.2036,-78 470.2036,-84 464.2036,-90 458.2036,-90"/><text x="421.138" y="-67.8" fill="#000" font-family="Times,serif" font-size="14" text-anchor="middle">SUB time.us.*</text></g><g id="node5" class="node"><title>sub3</title><path fill="none" stroke="#000" d="M458.5991,-36C458.5991,-36 383.6772,-36 383.6772,-36 377.6772,-36 371.6772,-30 371.6772,-24 371.6772,-24 371.6772,-12 371.6772,-12 371.6772,-6 377.6772,0 383.6772,0 383.6772,0 458.5991,0 458.5991,0 464.5991,0 470.5991,-6 470.5991,-12 470.5991,-12 470.5991,-24 470.5991,-24 470.5991,-30 464.5991,-36 458.5991,-36"/><text x="421.138" y="-13.8" fill="#000" font-family="Times,serif" font-size="14" text-anchor="middle">SUB time.us.&gt;</text></g><g id="edge4" class="edge"><title>subject-&gt;sub3</title><path fill="none" stroke="#000" d="M283.2153,-60.439C289.7664,-58.2691 296.5774,-56.0419 302.9795,-54 322.1173,-47.8961 343.0697,-41.4392 361.9465,-35.7048"/><polygon fill="#000" stroke="#000" points="363.053 -39.027 371.608 -32.778 361.023 -32.328 363.053 -39.027"/><text x="314.648" y="-56.8" fill="#000" font-family="Times,serif" font-size="14" text-anchor="middle">msg</text></g></g></svg>